<?xml version="1.0" encoding="UTF-8"?>
<svg width="2395px" height="817px" viewBox="0 0 2395 817" version="1.1" xmlns="http://www.w3.org/2000/svg" xmlns:xlink="http://www.w3.org/1999/xlink">
    <!-- Generator: Sketch 50.2 (55047) - http://www.bohemiancoding.com/sketch -->
    <title>octopath_traveler_logo_2</title>
    <desc>Created with Sketch.</desc>
    <defs></defs>
    <g id="Page-1" stroke="none" stroke-width="1" fill="none" fill-rule="evenodd">
        <g id="octopath_traveler_logo_2" fill="#000000" fill-rule="nonzero">
            <path d="M1573.18371,0.652237602 L1577.73471,0.652157991 C1584.61329,17.3820453 1589.35716,28.8603061 1591.96632,35.0869406 C1617.02936,94.8456363 1643.98371,156.802158 1671.79241,221.34781 C1684.22284,250.199984 1695.21197,284.178245 1723.44458,294.913028 C1725.19507,295.577862 1729.36899,296.682481 1735.96632,298.226886 L1735.96632,301.173897 L1735.96632,305.953578 C1723.7476,305.387878 1715.92152,304.838129 1712.48806,304.304332 C1662.10762,296.471723 1637.4473,251.861397 1620.14023,200.993462 C1594.4011,200.993462 1555.79241,200.993462 1504.31415,200.993462 C1496.78806,216.080419 1491.04893,228.604332 1487.09675,238.565201 C1477.3011,263.249984 1465.3011,283.663028 1490.22719,293.341288 C1493.09023,294.456506 1497.81197,295.532593 1501.18371,296.471723 C1502.44364,296.822281 1505.05233,297.407336 1509.0098,298.226886 L1509.0098,301.167375 L1509.0098,305.885174 L1488.66197,305.863028 L1438.57501,305.863028 L1419.47855,305.953578 L1419.47855,301.742511 L1419.47855,297.513571 C1419.47855,297.513571 1422.77338,296.885174 1429.36306,295.628381 C1456.77474,292.367511 1466.48806,248.093462 1477.70545,221.34781 C1508.01849,149.054332 1544.07719,65.5891145 1570.05328,0.652157991 C1570.74893,0.652157991 1571.79241,0.652184528 1573.18371,0.652237602 Z M1510.57501,183.782593 C1544.48806,183.782593 1578.4011,183.782593 1612.31415,183.782593 C1596.68154,145.676071 1579.54893,109.069549 1562.22719,72.652158 C1544.74241,109.434767 1526.48806,145.428245 1510.57501,183.782593 Z" id="Shape"></path>
            <path d="M593.695652,14.7391304 L596.826087,14.7391304 L596.826087,38.2173913 L596.826087,113.347826 L589,113.347826 C588.306436,106.111244 587.784697,101.937331 587.434783,100.826087 C572.917391,54.6978261 536.871739,16.4021739 473.173913,22.5652174 C412.280435,28.4608696 379.182609,78.123913 377.695652,144.652174 C375.928261,223.545652 406.984783,298.023913 493.521739,290.217391 C538.195652,286.186957 558.954348,257.641304 574.913043,222.913043 C575.960783,220.628782 578.03687,215.43313 581.141304,207.326087 L589,207.26087 L592.65625,207.26087 C589.450534,218.079407 587.188306,225.383755 585.869565,229.173913 C571.443478,270.665217 540.25,302.458696 488.826087,305.869565 C445.176087,308.758696 397.117391,290.478261 369.869565,262.043478 C316.430435,206.269565 314.734783,97.5978261 369.869565,41.3478261 C388.717391,22.1217391 416.643478,5.52391304 459.086957,2.2173913 C478.104348,0.736956522 496.45,0.52826087 515.434783,6.91304348 C522.856522,9.41086957 532.873913,16.9891304 542.043478,22.5652174 C556.071739,31.0891304 571.306522,43.9108696 584.304348,27.2608696 C585.676512,25.5044989 587.24173,21.3305858 589,14.7391304 L593.695652,14.7391304 Z" id="Shape"></path>
            <path d="M864.506969,2.22057256 L868.175447,74.2205726 L863.691751,74.2270943 L859.004251,74.2270943 C858.352203,67.4256305 857.804648,63.2495436 857.361588,61.6988334 C846.802893,24.5901378 817.148545,16.8227465 763.448545,21.0031813 C753.00724,50.8727465 757.611588,100.437964 757.187675,152.481442 C757.187675,173.070573 757.187675,196.633616 757.187675,221.351007 C758.834414,258.590138 751.35724,290.259703 779.100719,296.487964 C783.104371,297.382852 790.408719,297.759754 801.013762,297.61867 L801.013762,301.183616 L801.013762,305.879268 L788.492023,305.879268 L688.31811,305.879268 L677.361588,305.872746 L677.361588,301.183616 L677.361588,297.61867 C688.010452,297.851102 695.3148,297.4742 699.274632,296.487964 C723.887675,290.351007 718.888762,259.405355 719.622458,222.922746 C719.622458,196.226007 719.622458,175.170573 719.622458,154.053181 C718.888762,102.068399 722.635501,53.1423117 714.926806,21.009703 C664.878979,18.7010073 635.002893,20.6770943 624.144197,58.5749204 C623.61813,60.4070833 622.828728,65.6244746 621.77599,74.2270943 L617.883327,74.2270943 L611.891479,74.2205726 L613.187675,60.1401378 C616.31811,22.5749204 617.883327,3.26839865 617.883327,2.22057256 C673.187675,2.21622474 755.395556,2.21622474 864.506969,2.22057256 Z" id="Shape"></path>
            <path d="M1277.6956,165 C1277.6956,183.820652 1277.83123,215.974492 1277.6956,244.962446 C1277.58871,267.809545 1277.10937,287.538346 1287.08696,293.347826 C1291.40255,295.86161 1302.31695,297.180903 1319.83016,297.305707 L1319.95652,299.608696 L1319.92418,305.86947 C1317.58843,305.86947 1308.21008,305.86947 1291.78913,305.86947 C1273.72391,305.86947 1245.50299,305.86947 1207.12636,305.86947 L1194.73927,305.86947 L1194.73913,302.73913 L1194.73927,297.305707 C1208.58059,297.711308 1217.97184,296.913754 1222.91304,294.913043 C1231.76957,291.332609 1236.89565,281.778261 1238.56522,266.73913 C1241.94348,236.386957 1240.65217,197.06087 1240.65217,154.043478 C1240.65217,111.867391 1241.31087,70.376087 1238.56522,42.9130435 C1237.33261,30.5934783 1231.71739,16.7543478 1222.91304,13.173913 C1216.52494,10.5756293 1200.34389,11.1134511 1194.73927,11.1134511 C1194.69429,11.1134511 1194.73913,9.469759 1194.73913,8.47826087 C1194.73913,7.43478261 1194.73927,6.39130435 1194.73927,5.34782609 C1194.73927,3.21603261 1194.73913,3.52409515 1194.73927,2.2173913 C1219.10507,2.2173913 1275.29891,2.2173913 1325.64906,3.52409515 C1362.33437,4.47616477 1395.88672,16.1618094 1412.30435,35.0869565 C1420.46957,44.4978261 1427.7087,58.7413043 1429.52826,71.0934783 C1441.65217,153.691304 1364.48691,185.55 1277.6956,165 Z M1379.43478,88.3043478 C1378.9913,51.3065217 1350.29891,15.75 1304.30435,21 C1298.05658,21.7131448 1277.6956,21.8641304 1277.6956,49.6956522 C1277.6956,82.5978261 1277.6956,115.002717 1277.6956,150.913043 C1341.19126,168.926087 1380.07391,140.85 1379.43478,88.3043478 Z" id="Shape"></path>
            <path d="M1982.07169,2.22057256 L1985.74017,74.2205726 L1981.25648,74.2270943 L1976.56898,74.2270943 C1975.91693,67.4256305 1975.36937,63.2495436 1974.92631,61.6988334 C1964.36762,24.5901378 1934.71327,16.8227465 1881.01327,21.0031813 C1870.57196,50.8727465 1875.17631,100.437964 1874.7524,152.481442 C1874.7524,173.070573 1874.7524,196.633616 1874.7524,221.351007 C1876.39914,258.590138 1868.92196,290.259703 1896.66544,296.487964 C1900.66909,297.382852 1907.97344,297.759754 1918.57849,297.61867 L1918.57849,301.183616 L1918.57849,305.879268 L1906.05675,305.879268 L1805.88283,305.879268 L1794.92631,305.872746 L1794.92631,301.183616 L1794.92631,297.61867 C1805.57518,297.851102 1812.87952,297.4742 1816.83936,296.487964 C1841.4524,290.351007 1836.45349,259.405355 1837.18718,222.922746 C1837.18718,196.226007 1837.18718,175.170573 1837.18718,154.053181 C1836.45349,102.068399 1840.20023,53.1423117 1832.49153,21.009703 C1782.4437,18.7010073 1752.56762,20.6770943 1741.70892,58.5749204 C1741.18285,60.4070833 1740.39345,65.6244746 1739.34071,74.2270943 L1735.44805,74.2270943 L1729.4562,74.2205726 L1730.7524,60.1401378 C1733.88283,22.5749204 1735.44805,3.26839865 1735.44805,2.22057256 C1790.7524,2.21622474 1872.96028,2.21622474 1982.07169,2.22057256 Z" id="Shape"></path>
            <path d="M2127.61522,6.91304348 L2127.61522,9.02445652 C2120.17446,10.2228261 2114.80543,11.0380435 2111.50815,11.4701087 C2106.56223,12.1182065 2100.40082,12.5608696 2096.31739,16.3043478 C2089.00443,21.5733696 2085.34795,45.5733696 2085.34795,88.3043478 L2085.34795,141.521739 L2225.43478,141.521739 C2227.38261,82.1652174 2226.08043,43.5565217 2221.52826,25.6956522 C2220.08696,20.0478261 2211.06739,13.2586957 2204.31087,11.6086957 C2200.29827,10.6280272 2192.99392,9.76661412 2182.39783,9.02445652 L2182.39783,5.34782609 L2182.39783,2.2173913 L2310.75217,2.2173913 L2310.75217,6.91304348 L2310.75217,9.02445652 C2301.17474,10.4770435 2293.87039,11.8601957 2288.83913,13.173913 C2282.35652,14.8630435 2272.9212,14.8630435 2271.08696,23.392663 C2267.95652,42.2567935 2268.4913,41.4293478 2268.4913,125.869565 C2268.4913,175.493478 2268.4913,208.548913 2268.4913,244.214674 C2268.4913,271.265772 2265.56957,288.26087 2285.70217,294.913043 C2290.63655,296.54104 2298.98655,297.270659 2310.75217,297.101902 L2310.75217,299.608696 L2310.75217,305.869565 L2298.23043,305.869565 L2194.91957,305.869565 L2182.39783,305.869565 L2182.39783,301.173913 L2182.39783,297.101902 C2190.05259,296.926586 2194.74824,296.718705 2196.48478,296.478261 C2208.02174,294.880435 2218.75652,293.171739 2223.09348,282.391304 C2227.04442,272.578994 2225.54187,255.709917 2225.43478,231.782609 C2225.37733,218.945723 2225.37733,195.119636 2225.43478,160.304348 L2085.34795,160.304348 C2085.34795,187.378261 2085.34795,208.769565 2085.34795,224.478261 C2085.34795,258.554348 2080.60652,290.354348 2105.70217,296.478261 C2109.08711,297.303855 2116.39146,297.511735 2127.61522,297.101902 L2127.61522,299.608696 L2127.61522,305.869565 L2115.09348,305.869565 L2011.78261,305.869565 L1999.26087,305.869565 L1999.26087,301.173913 L1999.26739,297.101902 C2006.37369,297.013352 2011.06717,296.805471 2013.34783,296.478261 C2021.61087,295.291304 2032.10435,293.315217 2036.83261,287.086957 C2044.16957,277.415217 2041.52826,244.141304 2041.52826,222.913043 C2041.52826,175.030435 2041.52826,135.443478 2041.52826,88.3043478 C2041.52826,50.9804348 2048.36957,20.2630435 2021.18043,13.173913 C2018.15,12.3826087 2010.84565,10.9994565 1999.26739,9.02445652 C1999.26739,7.26902174 1999.26739,6.04347826 1999.26739,5.34782609 C1999.09783,4.13478261 1999.09783,3.09130435 1999.26739,2.2173913 L2127.61522,2.2173913 L2127.61522,6.91304348 Z" id="Shape"></path>
            <path d="M144.478261,5.34782609 C196.436957,-0.208695652 236.082609,15.8478261 263.434783,42.9130435 C282.58913,61.8586957 303.836957,96.3782609 307.26087,135.26087 C315.178261,225.215217 256.247826,301.434783 167.956522,305.869565 C68.8065217,310.845652 6.34782609,235.454348 16.1304348,138.391304 C22.3521739,76.6434783 57.1195652,32.4391304 105.347826,13.173913 C116.05,8.90217391 128.53913,7.05652174 144.478261,5.34782609 Z M58.3913043,119.608696 C59.6434783,189.247826 101.336957,269.204348 153.869565,283.956522 C195.517391,295.65 239.878261,274.082609 255.608696,241.695652 C262.345652,227.830435 265.045652,210.808696 265,191.608696 C264.869565,134.58913 233.891304,64.8 203.956522,39.7826087 C187.365217,25.9173913 162.308696,18.2608696 138.217391,21 C83.3826087,27.2347826 57.3673913,62.5304348 58.3913043,119.608696 Z" id="Shape"></path>
            <path d="M1011.6087,5.34782609 C1063.56739,-0.208695652 1103.20652,15.8478261 1130.56522,42.9130435 C1149.71957,61.8586957 1170.96739,96.3782609 1174.3913,135.26087 C1182.3087,225.215217 1123.37826,301.434783 1035.08696,305.869565 C935.936957,310.845652 873.478261,235.454348 883.26087,138.391304 C889.48913,76.6434783 924.25,32.4391304 972.478261,13.173913 C983.180435,8.90217391 995.676087,7.05652174 1011.6087,5.34782609 Z M925.521739,119.608696 C926.773913,189.247826 968.467391,269.204348 1021,283.956522 C1062.65435,295.656522 1107.0087,274.082609 1122.73913,241.695652 C1129.46957,227.830435 1132.16957,210.808696 1132.13043,191.608696 C1132.00652,134.58913 1101.02174,64.8 1071.08696,39.7826087 C1054.49565,25.9173913 1029.43913,18.2608696 1005.34783,21 C950.513043,27.2347826 924.497826,62.5304348 925.521739,119.608696 Z" id="Shape"></path>
            <path d="M0.47826087,367.73999 C1036.43478,367.73999 1814.35,367.73999 2334.22391,367.73999 C2336.31522,367.73999 2345.18478,367.73999 2360.83261,367.73999 L2360.83261,386.522599 C2344.78043,386.522599 2335.38913,386.522599 2332.6587,386.522599 C1600.02609,386.522599 875.604348,386.522599 138.223913,386.522599 C108.243478,386.522599 66.5891304,386.522599 25.5282609,386.522599 C22.6413043,386.522599 14.2913043,386.522599 0.47826087,386.522599 L0.47826087,367.73999 Z" id="Shape"></path>
            <path d="M759.608696,447.564437 L764.159693,447.564358 C771.038276,464.294245 775.782147,475.772506 778.391304,481.99914 C803.454348,541.757836 830.408696,603.714358 858.217391,668.26001 C870.647826,697.112184 881.636957,731.090445 909.869565,741.825227 C911.62006,742.490061 915.793973,743.594681 922.391304,745.139086 L922.391304,748.086097 L922.391304,752.865778 C910.172589,752.300078 902.346502,751.750329 898.913043,751.216532 C848.532609,743.383923 823.872283,698.773597 806.565217,647.905662 C780.826087,647.905662 742.217391,647.905662 690.73913,647.905662 C683.213043,662.992618 677.473913,675.516532 673.521739,685.477401 C663.726087,710.162184 651.726087,730.575227 676.652174,740.253488 C679.515217,741.368705 684.236957,742.444792 687.608696,743.383923 C688.868622,743.734481 691.477318,744.319535 695.434783,745.139086 L695.434783,748.079575 L695.434783,752.797374 L675.086957,752.775227 L625,752.775227 L605.903533,752.865778 L605.903533,748.654711 L605.903533,744.425771 C605.903533,744.425771 609.19837,743.797374 615.788043,742.54058 C643.199728,739.279711 652.913043,695.005662 664.130435,668.26001 C694.443478,595.966532 730.502174,512.501314 756.478261,447.564358 C757.173913,447.564358 758.217391,447.564384 759.608696,447.564437 Z M697,630.694792 C730.913043,630.694792 764.826087,630.694792 798.73913,630.694792 C783.106522,592.588271 765.973913,555.981749 748.652174,519.564358 C731.167391,556.346966 712.913043,592.340445 697,630.694792 Z" id="Shape"></path>
            <path d="M269.014946,449.129575 L272.683424,521.129575 L268.199728,521.136097 L263.512228,521.136097 C262.86018,514.334633 262.312625,510.158546 261.869565,508.607836 C251.31087,471.49914 221.656522,463.731749 167.956522,467.912184 C157.515217,497.781749 162.119565,547.346966 161.695652,599.390445 C161.695652,619.979575 161.695652,643.542618 161.695652,668.26001 C163.342391,705.49914 155.865217,737.168705 183.608696,743.396966 C187.612348,744.291855 194.916696,744.668757 205.521739,744.527673 L205.521739,748.092618 L205.521739,752.788271 L193,752.788271 L92.826087,752.788271 L81.8695652,752.781749 L81.8695652,748.092618 L81.8695652,744.527673 C92.5184294,744.760105 99.8227772,744.383203 103.782609,743.396966 C128.395652,737.26001 123.396739,706.314358 124.130435,669.831749 C124.130435,643.13501 124.130435,622.079575 124.130435,600.962184 C123.396739,548.977401 127.143478,500.051314 119.434783,467.918705 C69.3869565,465.61001 39.5108696,467.586097 28.6521739,505.483923 C28.1261073,507.316086 27.3367052,512.533477 26.2839674,521.136097 L22.3913043,521.136097 L16.3994565,521.129575 L17.6956522,507.04914 C20.826087,469.483923 22.3913043,450.177401 22.3913043,449.129575 C77.6956522,449.125227 159.903533,449.125227 269.014946,449.129575 Z" id="Shape"></path>
            <path d="M451.26087,604.086097 C450.823913,610.725227 457.03913,616.262184 460.652174,621.303488 C472.3,637.536097 483.947826,655.112184 496.652174,672.955662 C511.15,693.323053 532.723913,726.655662 554.565217,735.570879 C558.326087,737.105662 569.613451,740.128798 588.42731,744.640287 L588.42731,748.086288 L588.42731,752.788271 C576.276999,752.112734 568.12007,751.590995 563.956522,751.223053 C500.773913,745.640445 476.663043,711.596966 446.565217,671.396966 C431.01087,650.618705 417.634783,628.744792 404.304348,610.353488 C394.880435,612.173053 375.044158,612.462455 367.299592,610.984874 C366.73913,628.588111 366.73913,650.882742 366.73913,674.527401 C366.73913,707.403488 363.876087,737.879575 388.652174,743.403488 C391.708449,744.083021 399.012733,744.495288 410.565026,744.640287 L410.565026,748.086288 L410.565026,752.781749 C396.598112,752.786097 387.206872,752.788271 382.391304,752.788271 C355.78913,752.788271 327.608696,752.781749 297.869565,752.781749 C296.59588,752.781749 292.943727,752.781749 286.913107,752.781749 C286.922477,750.77669 286.922477,749.211536 286.913107,748.086288 C286.904911,747.102027 286.904911,745.62365 286.913107,743.651155 C295.103848,743.855686 300.321218,743.768777 302.565217,743.390429 C310.606522,742.040429 320.499984,739.54914 324.739115,732.433923 C328.673897,725.825227 330.152142,704.955662 329.173849,669.825227 C329.173849,613.033923 329.173849,569.207836 329.173849,538.346966 C329.173849,523.775509 329.173913,509.439358 329.173849,493.749661 C329.173786,478.059965 326.059814,464.519921 315.087068,460.086065 C310.2684,458.137723 300.87708,457.224716 286.913107,457.347046 L286.913107,455.390445 C286.913107,453.99914 286.913107,452.955662 286.913107,452.26001 C286.913043,450.437999 286.913107,450.794657 286.913107,449.136097 C340.513651,449.136097 400.366848,449.136097 449.287124,452.842398 C480.400979,455.199649 504.62449,469.944984 517,494.527401 C543.628261,547.405662 499.893478,599.879575 451.26087,604.086097 Z M473.173913,536.781749 C476.630435,482.064358 429.745652,455.338271 371.434783,469.483923 C363.823913,505.705662 367.691304,553.386097 366.73913,596.26001 C420.895652,599.638271 470.154348,584.527401 473.173913,536.781749 Z" id="Shape"></path>
            <path d="M991.26087,453.825227 L991.26087,459.031054 C981.395325,459.688404 975.134455,460.561824 972.478261,461.651314 C944.806522,473.012184 964.886957,503.240445 975.608696,527.390445 C998.428261,578.775227 1024.04565,638.038271 1044.47826,682.346966 C1060.41087,650.155662 1074.86304,610.418705 1091.43478,571.216532 C1107.43261,533.383923 1119.7,490.353488 1144.65217,466.346966 C1153.27809,458.046767 1166.51249,449.272663 1181.24482,449.722716 C1181.42371,449.72818 1183.7839,449.739457 1188.32541,449.756546 L1188.32541,453.393162 L1188.32541,456.348325 C1186.50286,456.722039 1185.56657,456.915287 1185.51652,456.92807 C1177.01427,459.099684 1169.2297,461.832608 1163.43478,466.346966 C1147.76957,478.54914 1136.4413,513.564358 1127.43478,535.223053 C1101.23696,598.190445 1076.7087,657.01001 1050.73913,718.353488 C1047.42174,726.183923 1041.68261,737.66001 1033.52174,752.781749 L1029.30707,752.781749 C1026.06084,745.000576 1023.81356,739.785359 1022.56522,737.136097 C980.956522,648.786097 938.884783,552.786097 898.913043,461.657836 C895.277094,458.766813 888.361148,459.155786 881.957859,459.031054 C879.970525,458.992342 875.707036,458.992342 869.167391,459.031054 L869.167391,455.396966 L869.167391,452.266532 L869.167391,449.142618 C911.997826,449.142618 943.823913,449.142618 964.645652,449.142618 C969.267978,449.135396 978.139717,449.135396 991.26087,449.142618 L991.26087,453.825227 Z" id="Shape"></path>
            <path d="M1437.34783,449.129575 C1438.45,463.907836 1440.21739,483.179575 1440.47826,499.216532 C1440.53678,502.823579 1440.60607,508.507003 1440.68614,516.266803 C1437.91344,516.192979 1436.45284,516.192979 1436.30435,516.266803 C1435.85041,516.179573 1434.32188,516.179573 1431.71875,516.266803 C1430.27647,508.052479 1429.02457,502.369055 1427.96304,499.216532 C1425.69348,492.505662 1424.49348,485.912184 1420.13696,480.433923 C1414.34468,473.148004 1408.33801,468.974036 1396.3587,466.346966 C1379.64674,466.346966 1344.79022,466.346966 1291.78913,466.346966 L1291.78278,583.738382 C1325.49462,583.738382 1351.06196,583.738382 1368.48478,583.738382 C1374.24592,583.738382 1371.03601,575.390365 1374.89329,575.390365 C1376.12612,575.390365 1377.0246,575.390365 1377.58875,575.390365 L1382.57174,575.361752 L1382.57174,594.694792 L1382.57174,612.381948 L1377.58131,612.368514 C1376.27395,612.368514 1375.37794,612.368514 1374.89329,612.368514 C1371.13791,612.368514 1372.41168,602.527401 1368.48478,602.527401 C1351.09348,602.527401 1325.53043,602.527401 1291.79565,602.527401 L1291.78278,686.545115 C1291.78278,693.338741 1291.78707,704.480118 1291.79565,719.969249 C1293.29783,730.370336 1301.65761,735.570879 1316.875,735.570879 C1334.01908,735.565187 1343.46087,735.556648 1345.20037,735.545263 C1371.43571,735.373557 1391.19501,734.338617 1404.47826,732.440445 C1426.38478,729.31001 1436.38261,706.920879 1446.73913,690.186097 C1448.15514,687.89737 1450.5872,683.201718 1454.03533,676.09914 L1460.82609,676.09914 L1464.02174,676.09914 C1460.72717,684.869034 1458.61848,690.608164 1457.69565,693.316532 C1451.36304,711.844792 1444.96522,734.605662 1437.34783,752.794792 C1370.27826,752.794792 1298.37609,752.794792 1229.17391,752.794792 C1226.52174,752.794792 1221.30652,752.794792 1213.52826,752.794792 L1204.13696,752.794792 L1204.13696,748.09914 L1204.13043,743.403488 C1210.44009,743.634599 1214.61618,743.634599 1216.6587,743.403488 C1228.75,742.040445 1240.67174,739.451314 1244.83261,729.316532 C1247.98913,716.096966 1247.17391,670.852401 1247.17391,665.145879 C1247.17391,621.495879 1247.17391,576.796695 1247.17391,536.952945 C1246.4606,506.891803 1254.97391,462.003488 1216.65217,458.527401 C1214.87972,458.366877 1210.70799,458.366877 1204.13696,458.527401 L1204.13043,455.403488 L1204.13043,452.273053 L1204.13043,449.129575 C1308.13043,449.129575 1385.86957,449.129575 1437.34783,449.129575 Z" id="Shape"></path>
            <path d="M1603.26739,453.825227 L1603.26739,457.673053 C1594.32632,457.786624 1588.58719,458.069233 1586.05,458.520879 C1556.53913,463.764358 1560.21739,490.330662 1560.21739,529.004575 C1560.21739,593.856749 1560.21739,659.54126 1560.21739,715.281749 C1560.21739,733.62414 1577.47625,733.442848 1584.1644,733.420336 C1678.42079,733.103075 1673.93723,733.26393 1695.6087,707.390445 C1700.4413,701.618705 1704.55,693.538271 1708.13043,687.042618 C1709.54551,684.471893 1711.93953,678.732763 1715.3125,669.825227 L1720.65217,669.825227 L1725.91033,669.825227 C1722.27825,680.38864 1720.0038,687.171249 1719.08696,690.173053 C1713.40652,708.740445 1704.71304,732.486097 1698.73913,752.781749 C1652.31522,752.781749 1579.27391,752.781749 1479.61522,752.781749 L1479.61522,749.657836 L1479.61522,743.814358 C1493.68032,744.39865 1503.07162,743.737781 1507.78913,741.831749 C1525.15592,734.804146 1526.03441,694.075568 1525.57065,654.649955 C1525.39875,640.035591 1525.57065,625.687118 1525.57065,613.175771 C1525.57065,591.24995 1525.58255,571.056451 1525.57065,552.543977 C1525.5559,529.592853 1525.3661,509.116067 1523.43478,489.831749 C1522.14348,476.938271 1518.21739,464.305662 1507.78913,460.086097 C1502.74076,458.04916 1493.34946,457.244812 1479.61522,457.673053 L1479.61522,455.390445 L1479.61522,452.26001 L1479.61522,449.136097 L1592.31087,449.136097 L1603.26739,449.136097 L1603.26739,453.825227 Z" id="Shape"></path>
            <path d="M1972.39092,449.129591 C1973.4931,463.907852 1975.26049,483.179591 1975.52136,499.216547 C1975.57987,502.823595 1975.64917,508.507018 1975.72924,516.266819 C1972.95653,516.192995 1971.49593,516.192995 1971.34744,516.266819 C1970.89351,516.179589 1969.36497,516.179589 1966.76185,516.266819 C1965.31956,508.052495 1964.06766,502.369071 1963.00614,499.216547 C1960.73657,492.505678 1959.53657,485.9122 1955.18005,480.433939 C1949.38778,473.14802 1943.3811,468.974052 1931.40179,466.346982 C1914.68984,466.346982 1879.83331,466.346982 1826.83223,466.346982 L1826.82588,583.738398 C1860.53772,583.738398 1886.10505,583.738398 1903.52788,583.738398 C1909.28902,583.738398 1906.0791,575.390381 1909.93639,575.390381 C1911.16921,575.390381 1912.0677,575.390381 1912.63185,575.390381 L1917.61484,575.361768 L1917.61484,594.694808 L1917.61484,612.381964 L1912.62441,612.36853 C1911.31705,612.36853 1910.42104,612.36853 1909.93639,612.36853 C1906.181,612.36853 1907.45478,602.527417 1903.52788,602.527417 C1886.13657,602.527417 1860.57353,602.527417 1826.83875,602.527417 L1826.82588,686.545131 C1826.82588,693.338756 1826.83017,704.480134 1826.83875,719.969265 C1828.34092,730.370352 1836.7007,735.570895 1851.9181,735.570895 C1869.06217,735.565203 1878.50396,735.556664 1880.24347,735.545279 C1906.47881,735.373573 1926.2381,734.338633 1939.52136,732.44046 C1961.42788,729.310026 1971.4257,706.920895 1981.78223,690.186113 C1983.19823,687.897386 1985.6303,683.201734 1989.07842,676.099156 L1995.86918,676.099156 L1999.06484,676.099156 C1995.77027,684.86905 1993.66157,690.60818 1992.73875,693.316547 C1986.40614,711.844808 1980.00831,734.605678 1972.39092,752.794808 C1905.32136,752.794808 1833.41918,752.794808 1764.21701,752.794808 C1761.56484,752.794808 1756.34962,752.794808 1748.57136,752.794808 L1739.18005,752.794808 L1739.18005,748.099156 L1739.17353,743.403504 C1745.48319,743.634614 1749.65927,743.634614 1751.70179,743.403504 C1763.7931,742.04046 1775.71484,739.45133 1779.8757,729.316547 C1783.03223,716.096982 1782.21701,670.852417 1782.21701,665.145895 C1782.21701,621.495895 1782.21701,576.79671 1782.21701,536.95296 C1781.50369,506.891819 1790.01701,462.003504 1751.69527,458.527417 C1749.92282,458.366893 1745.75108,458.366893 1739.18005,458.527417 L1739.17353,455.403504 L1739.17353,452.273069 L1739.17353,449.129591 C1843.17353,449.129591 1920.91266,449.129591 1972.39092,449.129591 Z" id="Shape"></path>
            <path d="M2179.07092,603.492658 C2178.63396,610.131789 2184.84918,615.668745 2188.46222,620.71005 C2200.11005,636.942658 2211.75788,654.518745 2224.46222,672.362223 C2238.96005,692.729615 2260.53396,726.062223 2282.37527,734.977441 C2286.13614,736.512223 2297.4235,739.535359 2316.23736,744.046848 L2316.23736,747.492849 L2316.23736,752.194832 C2304.08705,751.519295 2295.93012,750.997556 2291.76657,750.629615 C2228.58396,745.047006 2204.47309,711.003528 2174.37527,670.803528 C2158.82092,650.025267 2145.44483,628.151354 2132.1144,609.76005 C2122.69048,611.579615 2102.85421,611.869017 2095.10964,610.391435 C2094.54918,627.994673 2094.54918,650.289303 2094.54918,673.933963 C2094.54918,706.81005 2091.68614,737.286137 2116.46222,742.81005 C2119.5185,743.489583 2126.82278,743.901849 2138.37508,744.046848 L2138.37508,747.492849 L2138.37508,752.18831 C2124.40816,752.192658 2115.01692,752.194832 2110.20135,752.194832 C2083.59918,752.194832 2055.41874,752.18831 2025.67961,752.18831 C2024.40593,752.18831 2020.75378,752.18831 2014.72316,752.18831 C2014.73253,750.183251 2014.73253,748.618097 2014.72316,747.492849 C2014.71496,746.508589 2014.71496,745.030211 2014.72316,743.057716 C2022.9139,743.262248 2028.13127,743.175339 2030.37527,742.79699 C2038.41657,741.44699 2048.31003,738.955702 2052.54916,731.840484 C2056.48395,725.231789 2057.96219,704.362223 2056.9839,669.231789 C2056.9839,612.440484 2056.9839,568.614397 2056.9839,537.753528 C2056.9839,523.18207 2056.98396,508.845919 2056.9839,493.156223 C2056.98383,477.466526 2053.86986,463.926483 2042.89712,459.492626 C2038.07845,457.544284 2028.68713,456.631278 2014.72316,456.753607 L2014.72316,454.797006 C2014.72316,453.405702 2014.72316,452.362223 2014.72316,451.666571 C2014.72309,449.84456 2014.72316,450.201218 2014.72316,448.542658 C2068.3237,448.542658 2128.1769,448.542658 2177.09717,452.24896 C2208.21103,454.60621 2232.43454,469.351546 2244.81005,493.933963 C2271.43831,546.812223 2227.70353,599.286137 2179.07092,603.492658 Z M2200.98396,536.18831 C2204.44048,481.470919 2157.5557,454.744832 2099.24483,468.890484 C2091.63396,505.112223 2095.50135,552.792658 2094.54918,595.666571 C2148.7057,599.044832 2197.9644,583.933963 2200.98396,536.18831 Z" id="Shape"></path>
            <polygon id="Shape" points="2357.70217 735.825386 2357.70217 742.216691 2346.73913 742.216691 2346.73913 767.781909 2343.61522 767.781909 2340.48478 767.781909 2340.48478 742.216691 2329.52826 742.216691 2329.52826 735.825386"></polygon>
            <path d="M2361.49379,735.564358 C2365.85572,735.564358 2368.90625,735.564358 2370.64538,735.564358 C2372.04538,741.464358 2374.38913,749.173597 2377.67663,758.692075 L2385.8288,735.564358 L2394.08288,735.564358 L2394.08288,767.761368 L2388.10248,767.761368 L2388.10248,746.520879 L2379.51087,767.761368 L2375.12908,767.761368 L2367.75466,744.955662 L2367.75466,767.659466 L2361.49379,767.659466 L2361.49379,735.564358 Z" id="Shape"></path>
            <path d="M2.04347826,798.170044 C1038,798.174392 1815.91522,798.174392 2335.78913,798.170044 C2337.88043,798.170044 2346.75,798.170044 2362.39783,798.170044 L2362.39783,816.875207 C2346.3413,816.926837 2336.95,816.952653 2334.22391,816.952653 C1601.5913,816.959174 877.169565,816.952653 139.78913,816.952653 C109.808696,816.952653 49.20625,816.952653 8.14538043,816.952653 C5.26277174,816.952653 3.22880435,816.926837 2.04347826,816.875207 L2.04347826,798.170044 Z" id="Shape"></path>
        </g>
    </g>
</svg>